<mxfile host="app.diagrams.net" modified="2024-04-11T17:57:42.116Z" agent="Mozilla/5.0 (Windows NT 10.0; Win64; x64; rv:124.0) Gecko/20100101 Firefox/124.0" etag="DooOU2HiV5k-d23_mJec" version="24.2.2" type="github">
  <diagram name="Page-1" id="xjE_2REHdxasygmKfpRi">
    <mxGraphModel dx="993" dy="518" grid="1" gridSize="10" guides="1" tooltips="1" connect="1" arrows="1" fold="1" page="1" pageScale="1" pageWidth="850" pageHeight="1100" background="#000000" math="0" shadow="0">
      <root>
        <mxCell id="0" />
        <mxCell id="1" parent="0" />
        <mxCell id="oPM3tJ37PHZPRLMDAiYi-1" value="" style="strokeWidth=2;html=1;shape=mxgraph.flowchart.database;whiteSpace=wrap;" vertex="1" parent="1">
          <mxGeometry x="120" y="440" width="60" height="80" as="geometry" />
        </mxCell>
        <mxCell id="oPM3tJ37PHZPRLMDAiYi-2" value="" style="shape=cylinder3;whiteSpace=wrap;html=1;boundedLbl=1;backgroundOutline=1;size=15;" vertex="1" parent="1">
          <mxGeometry x="540" y="440" width="60" height="80" as="geometry" />
        </mxCell>
        <mxCell id="oPM3tJ37PHZPRLMDAiYi-3" style="edgeStyle=orthogonalEdgeStyle;rounded=0;orthogonalLoop=1;jettySize=auto;html=1;entryX=0;entryY=0.5;entryDx=0;entryDy=0;entryPerimeter=0;curved=0;strokeColor=#FFFFFF;flowAnimation=1;shadow=1;" edge="1" parent="1" source="oPM3tJ37PHZPRLMDAiYi-1" target="oPM3tJ37PHZPRLMDAiYi-2">
          <mxGeometry relative="1" as="geometry" />
        </mxCell>
      </root>
    </mxGraphModel>
  </diagram>
</mxfile>
